<?xml version="1.0" encoding="UTF-8"?>
<svg width="25px" height="25px" viewBox="0 0 25 25" version="1.1" xmlns="http://www.w3.org/2000/svg" xmlns:xlink="http://www.w3.org/1999/xlink">
    <title>exit-top-right copy 2</title>
    <g id="Version-1" stroke="none" stroke-width="1" fill="none" fill-rule="evenodd">
        <g id="Desktop-HD" transform="translate(-64.000000, -2690.000000)" fill="#F7F4F1" fill-rule="nonzero">
            <g id="exit-top-right-copy-2" transform="translate(64.000000, 2691.000000)">
                <path d="M21.4779692,11.953863 L19.7989249,11.953863 C19.4511948,11.953863 19.1692833,12.2357714 19.1692833,12.5834975 L19.1692833,20.2386765 C19.1692833,20.6450006 18.8385955,20.9756006 18.4322668,20.9756006 L3.76102969,20.9756006 C3.35478493,20.9756006 3.02434901,20.6450006 3.02434901,20.2386765 L3.02434901,5.56785903 C3.02434901,5.16145101 3.35478493,4.83076702 3.76102969,4.83076702 L11.8082692,4.83076702 C12.1559993,4.83076702 12.4379108,4.54885871 12.4379108,4.20113261 L12.4379108,2.52210753 C12.4379108,2.17438143 12.1559993,1.89247312 11.8082692,1.89247312 L3.76102969,1.89247312 C1.73459114,1.89247312 0.0860215054,3.54127575 0.0860215054,5.56785903 L0.0860215054,20.2387605 C0.0860215054,22.2653438 1.73467509,23.9139785 3.76102969,23.9139785 L18.4321829,23.9139785 C20.4587893,23.9139785 22.1075269,22.2652598 22.1075269,20.2387605 L22.1075269,12.5835814 C22.1075269,12.2357714 21.8256993,11.953863 21.4779692,11.953863 Z" id="Path"></path>
                <path d="M23.5452573,-0.172043011 L16.8968996,-0.172043011 C16.5507468,-0.172043011 16.2701139,0.108591116 16.2701139,0.45474554 L16.2701139,2.12618168 C16.2701139,2.4723361 16.5507468,2.75297023 16.8968996,2.75297023 L19.1787339,2.75297023 L10.5921877,11.3393884 C10.347407,11.5841702 10.347407,11.9809691 10.5921877,12.2258345 L11.7740548,13.4077906 C11.8916398,13.5253761 12.0510105,13.5913978 12.2173176,13.5913978 C12.3835412,13.5913978 12.5429955,13.5253761 12.6604969,13.4077906 L21.2470431,4.8212053 L21.2470431,7.10296634 C21.2470431,7.44912077 21.5276759,7.72975489 21.8738288,7.72975489 L23.5452573,7.72975489 C23.8914102,7.72975489 24.172043,7.44912077 24.172043,7.10296634 L24.172043,0.45474554 C24.172043,0.108591116 23.8914102,-0.172043011 23.5452573,-0.172043011 Z" id="Path"></path>
            </g>
        </g>
    </g>
</svg>